PathFileType	4	(X/Y/Z)	./resultDataOpenSim/trcMotMarkerGrf/sub09/qtm-01-01.trc
DataRate	CameraRate	NumFrames	NumMarkers	Units	OrigDataRate	OrigDataStartFrame	OrigNumFrames
250.000000	250.000000	7	24	m	250.000000	123	488
Frame#	Time	L.Toe.Tip			R.Toe.Tip			L.Ankle.Lat			R.Ankle.Lat			L.Ankle.Med			R.Ankle.Med			L.Heel			R.Heel			L.Knee.Lat			R.Knee.Lat			L.Knee.Med			R.Knee.Med			L.Thigh.Upper			R.Thigh.Upper			L.ASIS			R.ASIS			V.Sacral			L.Acromium			R.Acromium			C7			L.Elbow			R.Elbow			L.Wrist.Lat			R.Wrist.Lat
		X1	Y1	Z1	X2	Y2	Z2	X3	Y3	Z3	X4	Y4	Z4	X5	Y5	Z5	X6	Y6	Z6	X7	Y7	Z7	X8	Y8	Z8	X9	Y9	Z9	X10	Y10	Z10	X11	Y11	Z11	X12	Y12	Z12	X13	Y13	Z13	X14	Y14	Z14	X15	Y15	Z15	X16	Y16	Z16	X17	Y17	Z17	X18	Y18	Z18	X19	Y19	Z19	X20	Y20	Z20	X21	Y21	Z21	X22	Y22	Z22	X23	Y23	Z23	X24	Y24	Z24

123	0.488	-0.13493984	0.10341393	0.02015635	-0.64928489	0.038515691	0.13073311	-0.28949079	0.10318343	-0.0093460582	-0.79667956	0.06014111	0.16234658	-0.26623282	0.1279499	0.084463779	-0.78317735	0.096862367	0.070939592	-0.34311963	0.050340591	0.044378684	-0.86522741	0.041041911	0.11097989	-0.35929769	0.51476873	-0.048222731	-0.6534734	0.49376581	0.22987946	-0.35784801	0.50976429	0.078266694	-0.66758195	0.48878334	0.10132865	-0.55825032	0.88476447	-0.086197822	-0.60131936	0.89521076	0.28410833	-0.4907245	0.97199854	-0.020658664	-0.49139865	0.97650002	0.2188683	-0.65998439	1.0305727	0.093556515	-0.51697789	1.4230417	-0.082514746	-0.53013896	1.4426466	0.246883	-0.58934245	1.4805967	0.08186741	-0.66377804	1.0814776	-0.12507269	-0.62263944	1.0906966	0.35132839	-0.52683588	0.85950147	-0.17382425	-0.43666838	0.88989293	0.34574305
124	0.492	-0.11881354	0.10598305	0.021322459	-0.6493035	0.038433753	0.13072087	-0.27367057	0.10358665	-0.0091995469	-0.79668624	0.060400242	0.16205279	-0.25090779	0.12913494	0.084554027	-0.78270894	0.09717779	0.070697094	-0.32638887	0.050132261	0.044483388	-0.86512672	0.041577449	0.11041481	-0.35270848	0.51349636	-0.048701413	-0.65113597	0.49313753	0.22987145	-0.35114702	0.5080678	0.078417065	-0.66480906	0.48832301	0.10123915	-0.55223481	0.88327138	-0.086189743	-0.59612256	0.89417069	0.28393456	-0.48447014	0.97059397	-0.020517746	-0.48599155	0.97514353	0.21902098	-0.65433491	1.0297003	0.093919979	-0.51089676	1.4216965	-0.082635247	-0.52427494	1.4412747	0.24680541	-0.58332143	1.4793084	0.081718609	-0.65781276	1.0803505	-0.12556595	-0.61635199	1.0891056	0.35121906	-0.52168207	0.8580216	-0.1746019	-0.42982334	0.88882958	0.34561607
125	0.496	-0.10306736	0.10846524	0.02245319	-0.64931141	0.038347443	0.13075066	-0.2582342	0.10409469	-0.0091227065	-0.79670963	0.060660803	0.16169151	-0.2359213	0.1303993	0.084612875	-0.78219241	0.097554713	0.070436872	-0.31007393	0.05011803	0.044534864	-0.86502483	0.042137989	0.10984861	-0.34609532	0.51219751	-0.049118778	-0.64854622	0.49253144	0.22986651	-0.34451824	0.50634412	0.078510714	-0.66207831	0.48783349	0.10131428	-0.54617062	0.88174911	-0.086151044	-0.59090897	0.89308544	0.28376311	-0.47820996	0.9691661	-0.020389501	-0.48063547	0.97373113	0.21917411	-0.64892978	1.0287821	0.093711709	-0.50477576	1.4203105	-0.082779268	-0.51841136	1.4398666	0.24672598	-0.57729245	1.4780296	0.081585423	-0.65174689	1.0791682	-0.12609405	-0.61013231	1.0874937	0.35112925	-0.51650716	0.85647366	-0.1753813	-0.42299163	0.88772324	0.34549219
126	0.5	-0.087746026	0.1108587	0.023548685	-0.6492942	0.038281727	0.13079867	-0.24318182	0.10470683	-0.0091320803	-0.79671587	0.060970049	0.16131437	-0.22135024	0.13168942	0.084603643	-0.78164245	0.097964431	0.070154063	-0.29420372	0.050253261	0.044478962	-0.86493018	0.04271685	0.10931963	-0.33945542	0.51087383	-0.049470302	-0.64562268	0.49198665	0.22988342	-0.33805671	0.50464153	0.078466114	-0.65932637	0.48733254	0.10154615	-0.54002985	0.88019679	-0.086113999	-0.58567514	0.89195239	0.28359269	-0.47194149	0.96771616	-0.020269819	-0.47524096	0.97229584	0.21931296	-0.6432831	1.0273526	0.092181742	-0.49860888	1.4188849	-0.082942976	-0.51253737	1.4384273	0.24664288	-0.571241	1.4767476	0.081457819	-0.64566594	1.0779421	-0.12661729	-0.60396749	1.0858626	0.35105125	-0.51132784	0.85486319	-0.17616877	-0.41618304	0.8865717	0.34537135
127	0.504	-0.072899605	0.11318065	0.024607911	-0.64925445	0.038239467	0.13084026	-0.22852388	0.10541021	-0.0092216347	-0.79665794	0.061362956	0.16097165	-0.2072664	0.13294923	0.084489137	-0.7810816	0.098369233	0.069839266	-0.27880923	0.050491876	0.044267951	-0.86482376	0.043348989	0.10880333	-0.33277155	0.50952299	-0.049761109	-0.642358	0.49151646	0.22992311	-0.33168388	0.50298978	0.078342005	-0.65640571	0.48681742	0.10180393	-0.53378232	0.87861529	-0.086114553	-0.58041544	0.8907827	0.28341398	-0.46566105	0.96624479	-0.020157342	-0.46975912	0.9708701	0.21943364	-0.63702811	1.0254086	0.089417192	-0.49239609	1.4174178	-0.0831116	-0.50663028	1.4369648	0.24655172	-0.56514351	1.4754304	0.081306152	-0.63959922	1.0766719	-0.12712752	-0.59780792	1.0842047	0.35095541	-0.50613208	0.85320633	-0.17696785	-0.4094049	0.88537666	0.3452483
128	0.508	-0.058567404	0.11545543	0.025621298	-0.64920386	0.038208939	0.13086896	-0.21427377	0.10617703	-0.0093862929	-0.79654767	0.061840212	0.16067106	-0.19369056	0.13413429	0.084304881	-0.78053743	0.098748311	0.069457877	-0.26392381	0.050791509	0.043864982	-0.86467965	0.044074558	0.10823753	-0.32603056	0.50814219	-0.049992732	-0.6388668	0.4910855	0.22994419	-0.32529543	0.5014016	0.078228313	-0.65321287	0.48629327	0.1019404	-0.52741698	0.87701195	-0.086161435	-0.57512221	0.88959296	0.28322367	-0.45936612	0.96475214	-0.020059061	-0.46418589	0.96947032	0.21953747	-0.63034452	1.0234214	0.086693864	-0.48614009	1.4159091	-0.083272196	-0.50068038	1.4354846	0.24644831	-0.55899316	1.4740598	0.081116523	-0.6335043	1.0753528	-0.12765063	-0.59161931	1.0825179	0.35082001	-0.5009032	0.8515167	-0.17778295	-0.40265389	0.88414735	0.34511518
129	0.512	-0.044780441	0.11769443	0.026568501	-0.64915152	0.038181252	0.13088723	-0.20044226	0.10699158	-0.0096488321	-0.79642772	0.062379647	0.1603875	-0.18062915	0.13520843	0.084136357	-0.78005303	0.099113042	0.068955842	-0.24957573	0.051103715	0.043246841	-0.86450824	0.044892912	0.10763753	-0.31922489	0.50673784	-0.050164351	-0.63531898	0.49063328	0.22989446	-0.31884113	0.49987577	0.078177131	-0.64975787	0.48579014	0.10189817	-0.52093759	0.87539934	-0.086247071	-0.5697903	0.88839335	0.28301869	-0.45305703	0.96323884	-0.019981335	-0.45852667	0.96809724	0.21962388	-0.62376053	1.021655	0.085299531	-0.4798456	1.4143631	-0.083428408	-0.49469609	1.4339896	0.24633286	-0.5528034	1.4726425	0.080900968	-0.62734759	1.0739851	-0.12820597	-0.58540826	1.0808152	0.35064669	-0.49563032	0.84979944	-0.17860916	-0.39592032	0.88288962	0.34497147
